<!DOCTYPE svg PUBLIC "-//W3C//DTD SVG 1.1//EN" "http://www.w3.org/Graphics/SVG/1.1/DTD/svg11.dtd">

<!-- Uploaded to: SVG Repo, www.svgrepo.com, Transformed by: SVG Repo Mixer Tools -->
<svg height="80px" width="80px" version="1.1" id="Layer_1" xmlns="http://www.w3.org/2000/svg" xmlns:xlink="http://www.w3.org/1999/xlink" viewBox="0 0 512 512" xml:space="preserve" fill="#000000">

<g id="SVGRepo_bgCarrier" stroke-width="0"/>

<g id="SVGRepo_tracerCarrier" stroke-linecap="round" stroke-linejoin="round"/>

<g id="SVGRepo_iconCarrier"> <path style="fill:#40f000;" d="M256,0C114.616,0,0,114.616,0,256s114.616,256,256,256s256-114.616,256-256S397.384,0,256,0z"/> <g> <path style="fill:#FFFFFF;" d="M256,466.432c-116.032,0-210.432-94.4-210.432-210.432S139.968,45.568,256,45.568 S466.432,139.968,466.432,256S372.032,466.432,256,466.432z M256,61.568C148.792,61.568,61.568,148.792,61.568,256 S148.792,450.432,256,450.432S450.432,363.208,450.432,256S363.208,61.568,256,61.568z"/> <polygon style="fill:#FFFFFF;" points="356.088,238.864 256,140.256 155.912,238.864 198.864,238.864 198.864,345.08 313.136,345.08 313.136,238.864 "/> </g> </g>

</svg>